<svg xmlns="http://www.w3.org/2000/svg" width="1200" height="800" viewBox="0 0 1200 800" role="img" aria-label="Hanging Plants">
  <defs>
    <linearGradient id="sky" x1="0" y1="0" x2="0" y2="1">
      <stop offset="0%" stop-color="#cfe8ff"/>
      <stop offset="100%" stop-color="#ffffff"/>
    </linearGradient>
    <linearGradient id="ground" x1="0" y1="0" x2="0" y2="1">
      <stop offset="0%" stop-color="#83c96a"/>
      <stop offset="100%" stop-color="#4b7b45"/>
    </linearGradient>
  </defs>
  <rect width="1200" height="800" fill="url(#sky)"/>
  <circle cx="980" cy="150" r="70" fill="#fff8b6" opacity="0.9"/>
  <path d="M0 520 C180 430 310 470 430 520 S750 590 1200 500 L1200 800 L0 800 Z" fill="url(#ground)"/>
  <path d="M0 590 C210 500 370 560 560 620 S900 690 1200 620" fill="none" stroke="#d2b481" stroke-width="60" stroke-linecap="round" opacity="0.7"/>
  <rect x="120" y="520" width="22" height="120" fill="#6b4b2b"/>
  <circle cx="131" cy="500" r="48" fill="#d55b53" opacity="0.85"/>
  <rect x="940" y="500" width="20" height="116" fill="#6b4b2b"/>
  <circle cx="950" cy="480" r="42" fill="#d55b53" opacity="0.75"/>
  <rect x="280" y="555" width="18" height="95" fill="#6b4b2b"/>
  <circle cx="289" cy="540" r="34" fill="#ffffff" opacity="0.65"/>
  <rect x="770" y="560" width="24" height="100" fill="#6b4b2b"/>
  <circle cx="782" cy="548" r="38" fill="#ffffff" opacity="0.55"/>
  <rect x="390" y="630" width="420" height="90" rx="24" fill="#ffffff" opacity="0.72"/>
  <text x="600" y="688" font-family="Arial, Helvetica, sans-serif" font-size="54" text-anchor="middle" fill="#213547">Garden Basket</text>
</svg>